<mxfile host="app.diagrams.net" modified="2023-12-04T17:26:42.382Z" agent="Mozilla/5.0 (Windows NT 10.0; Win64; x64) AppleWebKit/537.36 (KHTML, like Gecko) Chrome/119.0.0.0 Safari/537.36 Edg/119.0.0.0" etag="b3Exn8ILmoIH1DbUmwcC" version="22.1.5" type="github">
  <diagram id="C5RBs43oDa-KdzZeNtuy" name="Page-1">
    <mxGraphModel dx="1042" dy="577" grid="1" gridSize="10" guides="1" tooltips="1" connect="1" arrows="1" fold="1" page="1" pageScale="1" pageWidth="827" pageHeight="1169" math="0" shadow="0">
      <root>
        <mxCell id="WIyWlLk6GJQsqaUBKTNV-0" />
        <mxCell id="WIyWlLk6GJQsqaUBKTNV-1" parent="WIyWlLk6GJQsqaUBKTNV-0" />
        <mxCell id="0qzW0ICigQ8T6ApLVYR4-0" value="After the data is manipulated using the datasource we place it into a staging table.&lt;br&gt;xxwip_rp2orcl_perf_stg" style="rounded=1;whiteSpace=wrap;html=1;" vertex="1" parent="WIyWlLk6GJQsqaUBKTNV-1">
          <mxGeometry x="340" y="250" width="170" height="80" as="geometry" />
        </mxCell>
        <mxCell id="0qzW0ICigQ8T6ApLVYR4-1" value="&lt;span style=&quot;color: rgb(0, 0, 0); font-family: Helvetica; font-size: 12px; font-style: normal; font-variant-ligatures: normal; font-variant-caps: normal; font-weight: 400; letter-spacing: normal; orphans: 2; text-align: center; text-indent: 0px; text-transform: none; widows: 2; word-spacing: 0px; -webkit-text-stroke-width: 0px; background-color: rgb(251, 251, 251); text-decoration-thickness: initial; text-decoration-style: initial; text-decoration-color: initial; float: none; display: inline !important;&quot;&gt;&lt;br&gt;JSON data is&lt;br&gt;manipulated&lt;br&gt;&amp;nbsp;in the UI using java in&lt;br&gt;WIPCallWorkbrainApi &lt;br&gt;&amp;nbsp; &amp;nbsp; &amp;nbsp;datasource.&amp;nbsp;&lt;/span&gt;" style="ellipse;shape=cloud;whiteSpace=wrap;html=1;" vertex="1" parent="WIyWlLk6GJQsqaUBKTNV-1">
          <mxGeometry x="470" y="30" width="190" height="140" as="geometry" />
        </mxCell>
        <mxCell id="0qzW0ICigQ8T6ApLVYR4-5" value="" style="endArrow=classic;html=1;rounded=0;exitX=0.13;exitY=0.77;exitDx=0;exitDy=0;exitPerimeter=0;entryX=0.5;entryY=0;entryDx=0;entryDy=0;" edge="1" parent="WIyWlLk6GJQsqaUBKTNV-1" source="0qzW0ICigQ8T6ApLVYR4-1" target="0qzW0ICigQ8T6ApLVYR4-0">
          <mxGeometry width="50" height="50" relative="1" as="geometry">
            <mxPoint x="390" y="300" as="sourcePoint" />
            <mxPoint x="170" y="140" as="targetPoint" />
          </mxGeometry>
        </mxCell>
        <mxCell id="0qzW0ICigQ8T6ApLVYR4-6" value="Then the data is inserted into the xxwip_performance_data table." style="rounded=1;whiteSpace=wrap;html=1;" vertex="1" parent="WIyWlLk6GJQsqaUBKTNV-1">
          <mxGeometry x="110" y="470" width="180" height="60" as="geometry" />
        </mxCell>
        <mxCell id="0qzW0ICigQ8T6ApLVYR4-7" value="" style="endArrow=classic;html=1;rounded=0;exitX=0;exitY=0.5;exitDx=0;exitDy=0;entryX=0.5;entryY=0;entryDx=0;entryDy=0;" edge="1" parent="WIyWlLk6GJQsqaUBKTNV-1" source="0qzW0ICigQ8T6ApLVYR4-0" target="0qzW0ICigQ8T6ApLVYR4-6">
          <mxGeometry width="50" height="50" relative="1" as="geometry">
            <mxPoint x="390" y="300" as="sourcePoint" />
            <mxPoint x="440" y="250" as="targetPoint" />
            <Array as="points">
              <mxPoint x="200" y="330" />
            </Array>
          </mxGeometry>
        </mxCell>
        <mxCell id="0qzW0ICigQ8T6ApLVYR4-8" value="&lt;br&gt;Data is filtered in the&lt;br&gt;XXWIP_JOBS_PKG &lt;br&gt;based on &lt;br&gt;the work category&lt;br&gt;SEL, REC, LFT" style="ellipse;shape=cloud;whiteSpace=wrap;html=1;" vertex="1" parent="WIyWlLk6GJQsqaUBKTNV-1">
          <mxGeometry x="40" y="240" width="190" height="140" as="geometry" />
        </mxCell>
        <mxCell id="0qzW0ICigQ8T6ApLVYR4-9" value="After the data is inserted into &lt;br&gt;xxwip_performance_data table, the &lt;br&gt;xxwip_jobs_pkg does calculations for&lt;br&gt;daily and weekly performance based on&lt;br&gt;work category and position for the employee&lt;br&gt;this takes into account CPH / TPH&lt;br&gt;" style="ellipse;shape=cloud;whiteSpace=wrap;html=1;" vertex="1" parent="WIyWlLk6GJQsqaUBKTNV-1">
          <mxGeometry x="414" y="380" width="295" height="170" as="geometry" />
        </mxCell>
        <mxCell id="0qzW0ICigQ8T6ApLVYR4-12" value="" style="endArrow=classic;html=1;rounded=0;exitX=1;exitY=0.25;exitDx=0;exitDy=0;entryX=0.057;entryY=0.468;entryDx=0;entryDy=0;entryPerimeter=0;" edge="1" parent="WIyWlLk6GJQsqaUBKTNV-1" source="0qzW0ICigQ8T6ApLVYR4-6" target="0qzW0ICigQ8T6ApLVYR4-9">
          <mxGeometry width="50" height="50" relative="1" as="geometry">
            <mxPoint x="390" y="660" as="sourcePoint" />
            <mxPoint x="440" y="610" as="targetPoint" />
          </mxGeometry>
        </mxCell>
        <mxCell id="0qzW0ICigQ8T6ApLVYR4-13" value="" style="endArrow=classic;html=1;rounded=0;exitX=0.55;exitY=0.95;exitDx=0;exitDy=0;exitPerimeter=0;entryX=0.5;entryY=0;entryDx=0;entryDy=0;" edge="1" parent="WIyWlLk6GJQsqaUBKTNV-1" source="0qzW0ICigQ8T6ApLVYR4-9" target="0qzW0ICigQ8T6ApLVYR4-15">
          <mxGeometry width="50" height="50" relative="1" as="geometry">
            <mxPoint x="180.0013586372878" y="769.9964590717307" as="sourcePoint" />
            <mxPoint x="228.88" y="828.31" as="targetPoint" />
          </mxGeometry>
        </mxCell>
        <mxCell id="0qzW0ICigQ8T6ApLVYR4-15" value="Then the new data is inserted into the&lt;br&gt;xxwip_weekly_performance_data table" style="rounded=1;whiteSpace=wrap;html=1;" vertex="1" parent="WIyWlLk6GJQsqaUBKTNV-1">
          <mxGeometry x="470" y="620" width="215" height="70" as="geometry" />
        </mxCell>
        <mxCell id="0qzW0ICigQ8T6ApLVYR4-16" value="" style="endArrow=classic;html=1;rounded=0;exitX=1;exitY=0.75;exitDx=0;exitDy=0;entryX=0.078;entryY=0.353;entryDx=0;entryDy=0;entryPerimeter=0;" edge="1" parent="WIyWlLk6GJQsqaUBKTNV-1" target="0qzW0ICigQ8T6ApLVYR4-1">
          <mxGeometry width="50" height="50" relative="1" as="geometry">
            <mxPoint x="300" y="52.5" as="sourcePoint" />
            <mxPoint x="440" y="250" as="targetPoint" />
          </mxGeometry>
        </mxCell>
        <mxCell id="0qzW0ICigQ8T6ApLVYR4-17" value="" style="endArrow=classic;html=1;rounded=0;exitX=0;exitY=0.5;exitDx=0;exitDy=0;" edge="1" parent="WIyWlLk6GJQsqaUBKTNV-1" source="0qzW0ICigQ8T6ApLVYR4-15">
          <mxGeometry width="50" height="50" relative="1" as="geometry">
            <mxPoint x="390" y="840" as="sourcePoint" />
            <mxPoint x="360" y="700" as="targetPoint" />
          </mxGeometry>
        </mxCell>
        <mxCell id="0qzW0ICigQ8T6ApLVYR4-18" value="Data comes in from EXE using site specific API&#39;s. The following is an example of Holcomb&#39;s (xxwip.wc_exe_hc_perf_v@csdwc) the data is received&amp;nbsp;in JSON format.&amp;nbsp;" style="shape=cylinder3;whiteSpace=wrap;html=1;boundedLbl=1;backgroundOutline=1;size=15;" vertex="1" parent="WIyWlLk6GJQsqaUBKTNV-1">
          <mxGeometry x="80" y="20" width="220" height="130" as="geometry" />
        </mxCell>
        <mxCell id="0qzW0ICigQ8T6ApLVYR4-19" value="SUI" style="swimlane;whiteSpace=wrap;html=1;fillColor=#FFFFFF;" vertex="1" parent="WIyWlLk6GJQsqaUBKTNV-1">
          <mxGeometry x="190" y="940" width="205" height="120" as="geometry" />
        </mxCell>
        <mxCell id="0qzW0ICigQ8T6ApLVYR4-24" value="The datasource is then used&lt;br&gt;&amp;nbsp;within&amp;nbsp;SUI to display&lt;br&gt;&amp;nbsp;performance data" style="text;html=1;align=center;verticalAlign=middle;resizable=0;points=[];autosize=1;strokeColor=none;fillColor=#FFFFFF;" vertex="1" parent="0qzW0ICigQ8T6ApLVYR4-19">
          <mxGeometry x="20" y="30" width="170" height="60" as="geometry" />
        </mxCell>
        <mxCell id="0qzW0ICigQ8T6ApLVYR4-20" value="The data is then compiled into&amp;nbsp;&lt;br&gt;xxwip_weekly_performance_data_vl" style="rounded=1;whiteSpace=wrap;html=1;" vertex="1" parent="WIyWlLk6GJQsqaUBKTNV-1">
          <mxGeometry x="160" y="680" width="200" height="80" as="geometry" />
        </mxCell>
        <mxCell id="0qzW0ICigQ8T6ApLVYR4-21" value="The view is then linked to&amp;nbsp;&lt;br&gt;a datasource in the UI&lt;br&gt;WIPWeeklyPerformaceData" style="ellipse;shape=cloud;whiteSpace=wrap;html=1;" vertex="1" parent="WIyWlLk6GJQsqaUBKTNV-1">
          <mxGeometry x="430" y="760" width="230.25" height="160" as="geometry" />
        </mxCell>
        <mxCell id="0qzW0ICigQ8T6ApLVYR4-22" value="" style="endArrow=classic;html=1;rounded=0;exitX=0.866;exitY=0.985;exitDx=0;exitDy=0;exitPerimeter=0;entryX=0.069;entryY=0.358;entryDx=0;entryDy=0;entryPerimeter=0;" edge="1" parent="WIyWlLk6GJQsqaUBKTNV-1" source="0qzW0ICigQ8T6ApLVYR4-20" target="0qzW0ICigQ8T6ApLVYR4-21">
          <mxGeometry width="50" height="50" relative="1" as="geometry">
            <mxPoint x="250" y="840" as="sourcePoint" />
            <mxPoint x="300" y="790" as="targetPoint" />
          </mxGeometry>
        </mxCell>
        <mxCell id="0qzW0ICigQ8T6ApLVYR4-23" value="" style="endArrow=classic;html=1;rounded=0;exitX=0.13;exitY=0.77;exitDx=0;exitDy=0;exitPerimeter=0;entryX=1;entryY=0;entryDx=0;entryDy=0;" edge="1" parent="WIyWlLk6GJQsqaUBKTNV-1" source="0qzW0ICigQ8T6ApLVYR4-21" target="0qzW0ICigQ8T6ApLVYR4-19">
          <mxGeometry width="50" height="50" relative="1" as="geometry">
            <mxPoint x="250" y="840" as="sourcePoint" />
            <mxPoint x="300" y="790" as="targetPoint" />
          </mxGeometry>
        </mxCell>
      </root>
    </mxGraphModel>
  </diagram>
</mxfile>
